<?xml version="1.0" encoding="utf-8"?>
<svg viewBox="-24 0 52 100" width="52px" height="100px" xmlns="http://www.w3.org/2000/svg">
  <rect x="-24" y="0" width="52" height="100" style="fill: none;" id="bounds"/>
  <circle style="fill: rgb(59, 59, 59);" cx="26" cy="90" r="1" data-type="ball-drop" id="ball-drop"/>
  <circle style="fill: rgb(80, 80, 80);" cx="26" cy="96" r="1" class="plunger"/>
  <g id="lights" style="pointer-events: none;">
    <circle style="fill: rgb(255, 251, 0); stroke: rgb(0, 0, 0); stroke-width: 0.1px;" cy="-20" r="1.168" classname="light" class="light"/>
    <circle style="fill: rgb(255, 251, 0); stroke: rgb(0, 0, 0); stroke-width: 0.1px;" cx="50" cy="40" r="1.168" classname="light" class="light"/>
    <circle style="fill: rgb(255, 251, 0); stroke: rgb(0, 0, 0); stroke-width: 0.1px;" cx="-50" cy="40" r="1.168" classname="light" class="light"/>
    <circle style="fill: rgb(255, 251, 0); stroke: rgb(0, 0, 0); stroke-width: 0.1px;" cx="0" cy="110" r="1.168" classname="light" class="light"/>
  </g>
  <g>
    <polyline style="stroke: rgb(0, 0, 0); fill: none;" points="-15.902 75.65 -16.084 87.038 -12.193 90.645"/>
    <polyline style="stroke: rgb(0, 0, 0); stroke-width: 2; fill: none;" points="8.823 89.429 14.419 86.304 14.643 75.654"/>
    <polyline style="stroke: rgb(0, 0, 0); fill: none;" points="3.384 48.936 16.347 40.775 4.417 33.656"/>
    <polyline style="stroke: rgb(0, 0, 0); fill: none;" points="0.833 67.931 -8.964 62.648 -6.174 46.126 -13.701 35.059 -10.151 15.528 0.298 23.423"/>
  </g>
  <g id="bumpers">
    <circle style="fill: rgb(59, 230, 230);" cx="1.993" cy="9.486" r="4.177" class="bumper"/>
    <circle style="fill: rgb(59, 230, 230);" cx="11.555" cy="16.821" r="4.109" class="bumper"/>
    <circle style="fill: rgb(59, 230, 230);" cx="12.687" cy="6.651" r="2.443" class="bumper"/>
  </g>
  <g classname="ignore" style="visibility: hidden;" transform="matrix(0.68965, 0, 0, 0.783935, 118.483627, 3.398708)" classn="ignore" class="ignore">
    <circle style="fill: rgb(216, 216, 216);" cx="-19.092" cy="38.024" r="5.127" classname="bumper" class="bumper"/>
    <polyline style="stroke: rgb(0, 0, 0); fill: none;" points="-15.902 75.65 -16.084 87.038 -12.193 90.645" transform="matrix(1.450011, 0, 0, 1.275616, -107.650449, -11.430437)"/>
  </g>
  <rect x="-19.675" y="22.958" width="8.207" height="4.987" style="fill: rgb(255, 0, 0);" transform="matrix(0.666502, -0.745503, 0.745503, 0.666502, -23.285769, -7.395868)" class="goal">
    <title>goal</title>
  </rect>
</svg>