<?xml version="1.0" encoding="utf-8"?>
<svg viewBox="-24 0 52 100" width="52px" height="100px" xmlns="http://www.w3.org/2000/svg">
  <rect x="-24" y="0" width="52" height="100" style="fill: none;" id="bounds"/>
  <circle style="fill: rgb(59, 59, 59);" cx="26" cy="90" r="1" data-type="ball-drop" id="ball-drop"/>
  <circle style="fill: rgb(80, 80, 80);" cx="26" cy="96" r="1" class="plunger"/>
  <g id="lights" style="pointer-events: none;">
    <circle style="fill: rgb(255, 251, 0); stroke: rgb(0, 0, 0); stroke-width: 0.1px;" cy="-20" r="1.168" classname="light" class="light"/>
    <circle style="fill: rgb(255, 251, 0); stroke: rgb(0, 0, 0); stroke-width: 0.1px;" cx="50" cy="40" r="1.168" classname="light" class="light"/>
    <circle style="fill: rgb(255, 251, 0); stroke: rgb(0, 0, 0); stroke-width: 0.1px;" cx="-50" cy="40" r="1.168" classname="light" class="light"/>
    <circle style="fill: rgb(255, 251, 0); stroke: rgb(0, 0, 0); stroke-width: 0.1px;" cx="0" cy="110" r="1.168" classname="light" class="light"/>
  </g>
  <g transform="matrix(0.520292, 0, 0, 0.524198, -8.482165, 32.068924)" style="">
    <polyline style="stroke: rgb(0, 0, 0); fill: none;" points="-15.902 75.65 -16.084 87.038 -12.193 90.645"/>
    <polyline style="stroke: rgb(0, 0, 0); stroke-width: 2; fill: none;" points="8.823 89.429 14.419 86.304 14.643 75.654"/>
    <polyline style="stroke: rgb(0, 0, 0); fill: none;" points="3.384 48.936 16.347 40.775 4.417 33.656"/>
    <polyline style="stroke: rgb(0, 0, 0); fill: none;" points="0.833 67.931 -8.964 62.648 -6.174 46.126 -13.701 35.059 -10.151 15.528 0.298 23.423"/>
  </g>
  <g id="bumpers" transform="matrix(1, 0, 0, 1, 4.486448, 2.137723)">
    <circle style="fill: rgb(59, 230, 230);" cx="1.993" cy="9.486" r="2" class="bumper"/>
    <circle style="fill: rgb(59, 230, 230);" cx="11.555" cy="16.821" r="2" class="bumper"/>
    <circle style="fill: rgb(59, 230, 230);" cx="12.687" cy="6.651" r="2" class="bumper"/>
  </g>
  <g transform="matrix(0.885091, -0.465418, 0.465418, 0.885091, -20.426897, 21.473766)">
    <rect width="10" height="5" style="fill: rgb(255, 0, 0);" class="goal"/>
    <line style="stroke: rgb(0, 0, 0); stroke-width: 0.25px;" x1="0" y1="7" x2="2.5" y2="7" class="defender"/>
    <line style="stroke: rgb(0, 0, 0); stroke-width: 0.25px;" x1="3.75" y1="7" x2="6.25" y2="7" class="defender"/>
    <line style="stroke: rgb(0, 0, 0); stroke-width: 0.25px;" x1="7.5" y1="7" x2="10" y2="7" class="defender"/>
    <line style="stroke: rgb(0, 0, 0); stroke-width: 0.25px;" x1="0" y1="6" x2="10" y2="6" class="goalie"/>
  </g>
</svg>